<svg width="80" height="81" viewBox="0 0 80 81" fill="none" xmlns="http://www.w3.org/2000/svg">
<path d="M25.4701 35.0234C25.4701 37.39 26.6501 38.46 26.6501 39.1067C26.6501 39.4267 26.5434 39.5334 26.2234 39.75L24.8234 40.61C24.7168 40.7167 24.3968 40.7167 24.1801 40.7167C24.1801 40.7167 23.3234 40.8234 22.0334 38.03C20.5301 39.9634 18.0601 41.2534 15.5901 41.0367C13.9801 41.1467 9.36009 40.18 9.57675 35.1334C9.47009 31.1567 13.0101 28.6867 16.9868 28.9C17.7368 28.9 19.2401 28.9 21.8201 29.5467V27.9367C22.1401 25.25 20.3168 23.1034 17.0934 23.4267C16.9868 23.4267 15.1601 23.4267 12.2601 24.5C11.5101 24.93 11.5101 24.93 11.1868 24.93C10.4368 24.93 10.7568 22.78 10.8634 22.3534C11.2968 21.7067 14.6234 20.5267 17.6301 20.5267C19.7768 20.42 21.8201 20.9567 23.5368 22.3534C24.9334 23.8534 25.4701 25.7867 25.3634 27.83L25.4701 35.0234ZM16.3434 38.3567C19.6701 38.3567 21.1768 36.2067 21.4968 35.1334C21.6034 34.0567 21.6034 33.52 21.6034 32.2334C20.5301 32.1234 19.0268 31.8 17.4168 31.8C15.9134 31.6967 12.9068 32.4467 13.0134 35.1334C13.2268 37.0667 14.4101 38.46 16.3434 38.3534M34.1701 40.7134C33.3101 40.82 32.9868 40.2834 32.7701 39.64L27.6201 22.5667C27.5134 22.2434 27.5134 21.9234 27.5134 21.7067C27.5134 21.3867 27.6201 21.2767 27.9434 21.2767H30.2001C31.0568 21.17 31.3801 21.9234 31.5934 22.3534L35.3534 36.9567L38.8968 22.3534C39.0068 22.03 39.2201 21.17 40.2968 21.2767H42.1201C42.2268 21.2767 43.3001 21.2767 43.5168 22.3534L46.9501 37.1734L50.7101 22.3534C50.7101 22.2434 51.0334 21.17 52.1068 21.2767H54.2534C54.3634 21.2767 54.9001 21.17 54.6868 22.1367C54.6868 22.2434 55.0068 20.9567 49.2068 39.75C49.1001 40.3934 48.7768 40.93 47.8101 40.8234H45.8768C44.6968 40.93 44.4834 39.75 44.4834 39.6434L40.7201 25.4667L37.2834 39.6434C37.2834 39.75 37.1768 40.8234 35.8868 40.8234H34.2768V40.7167L34.1701 40.7134ZM62.5201 41.3567C61.8768 41.3567 59.0868 41.3567 56.6134 40.1767C56.1834 40.0667 55.7534 39.4234 55.7534 38.9934V37.8134C55.7534 36.9534 56.4001 37.06 56.6134 37.17C57.6867 37.5967 58.2234 37.92 59.6201 38.2434C63.3801 39.1034 65.0968 38.1367 65.5268 37.8134C66.9268 36.9534 67.0301 35.1267 65.9601 34.1634C64.8834 33.3034 64.4534 33.3034 60.4801 32.0134C60.1568 31.8 56.0801 30.5134 56.0801 26.5367C55.9701 23.6367 58.6534 20.63 63.2734 20.63C64.6701 20.63 68.1068 21.06 69.1801 22.24C69.2868 22.35 69.2868 22.6734 69.2868 22.9934V24.0667C69.2868 24.4967 69.1801 24.82 68.8568 24.82C67.9968 24.71 66.7101 23.6367 63.7034 23.6367C62.9501 23.6367 59.5134 23.7434 59.7301 26.2134C59.7301 28.1467 62.6301 28.9 62.9501 29.1134C66.7101 30.2967 68.1034 30.5134 69.3934 32.3367C71.2201 34.59 70.2534 37.2767 69.8234 38.0267C67.7834 41.7867 62.7368 41.36 62.5234 41.36M66.8201 52.3134C59.6234 57.58 48.9934 60.4767 40.0801 60.4767C27.8721 60.6734 16.0461 56.2202 7.00009 48.02C6.24675 47.3734 6.89009 46.5167 7.75009 47.16C17.7904 52.7848 29.1049 55.7422 40.6134 55.75C49.2034 55.75 57.6868 53.9267 65.6368 50.5967C66.9234 50.06 68.0001 51.3467 66.8201 52.3134ZM69.8234 48.88C68.9634 47.6967 63.5934 48.4467 61.3401 48.5567C60.5868 48.6634 60.4801 48.1234 61.2334 47.6967C65.4201 44.7967 72.2934 45.55 73.0434 46.5167C73.9034 47.3734 72.9368 54.3567 68.8568 57.6834C68.2134 58.1167 67.6768 57.79 67.9968 57.2534C68.7501 54.8934 70.6834 50.06 69.8234 48.8767" fill="#2A231B" fill-opacity="0.5"/>
</svg>
