<svg width="30" height="30" viewBox="0 0 30 30" fill="none" xmlns="http://www.w3.org/2000/svg">
<path d="M15 2.5C8.1 2.5 2.5 8.1 2.5 15C2.5 21.9 8.1 27.5 15 27.5C21.9 27.5 27.5 21.9 27.5 15C27.5 8.1 21.9 2.5 15 2.5ZM10.575 18.0625L8.875 17.2875C9.225 16.525 9.3875 15.7375 9.375 14.9625C9.36912 14.1856 9.19871 13.4188 8.875 12.7125L10.575 11.925C11.0125 12.8625 11.2375 13.875 11.25 14.925C11.2625 16 11.0375 17.05 10.575 18.0625ZM14.4125 20.0125L12.7875 19.0875C13.4375 17.9375 13.7625 16.6125 13.7625 15.15C13.7625 13.6625 13.425 12.2375 12.7625 10.9L14.4375 10.0625C15.2375 11.6625 15.6375 13.375 15.6375 15.15C15.6375 16.9375 15.225 18.575 14.4125 20.0125ZM18.3375 21.6625L16.65 20.8375C17.625 18.8375 18.125 16.8625 18.125 14.975C18.125 13.0875 17.625 11.1375 16.65 9.175L18.325 8.3375C19.45 10.5625 20 12.7875 20 14.975C20 17.15 19.45 19.4 18.3375 21.6625Z" fill="#2A231B"/>
</svg>
