<svg width="80" height="81" viewBox="0 0 80 81" fill="none" xmlns="http://www.w3.org/2000/svg">
<g clip-path="url(#clip0_28_51)">
<path d="M62.3295 37.029C59.8316 34.5571 59.148 27.1946 62.3295 23.9342L63.2763 22.8296L64.2228 23.7764C67.2731 26.1954 69.0086 28.9301 69.4292 31.9804C73.6723 30.6903 76.7891 31.5343 79.9998 33.5581C77.9181 37.9076 74.7102 40.6353 67.5359 40.3421C61.0406 56.5212 47.0784 66.2165 26.358 66.3742C15.4194 66.3742 7.58344 62.43 2.85016 54.2259C0.220158 49.3929 -0.33656 45.9109 0.16844 39.2378H7.11031V30.876H15.3139V22.6718H31.722V14.6257H41.5038V30.876H49.7078V39.2378C55.3313 39.4009 58.8245 39.0534 62.3294 37.029M14.5253 32.7692H14.9986V38.7645H14.5252L14.5253 32.7692ZM13.4209 32.7692H14.052V38.7645H13.4208L13.4209 32.7692ZM12.3166 32.7692H12.9477V38.7645H12.3164L12.3166 32.7692ZM11.2122 32.7692H11.8431V38.7645H11.2123L11.2122 32.7692ZM10.2655 32.7692H10.7389V38.7645H10.2655V32.7692ZM9.1611 32.7692H9.63453V38.7645H9.1611V32.7692ZM8.53 32.2959V39.3956H15.6297V32.2959H8.53ZM22.7294 24.7229H23.2027V30.5604H22.7292L22.7294 24.7229ZM21.625 24.7229H22.0983V30.5604H21.6248L21.625 24.7229ZM20.5205 24.7229H21.1517V30.5604H20.5205V24.7229ZM19.4161 24.7229H20.0473V30.5604H19.4161V24.7229ZM18.3117 24.7229H18.943V30.5604H18.3117V24.7229ZM17.3652 24.7229H17.8386V30.5604H17.3652V24.7229ZM16.7341 24.0918V31.1915H23.8338V24.0918H16.7341ZM22.7294 32.7692H23.2027V38.7645H22.7292L22.7294 32.7692ZM21.625 32.7692H22.0983V38.7645H21.6248L21.625 32.7692ZM20.5205 32.7692H21.1517V38.7645H20.5205V32.7692ZM19.4161 32.7692H20.0473V38.7645H19.4161V32.7692ZM18.3117 32.7692H18.943V38.7645H18.3117V32.7692ZM17.3652 32.7692H17.8386V38.7645H17.3652V32.7692ZM16.7341 32.2959V39.3956H23.8338V32.2959H16.7341ZM30.7756 32.7693H31.4067V38.7645H30.7755L30.7756 32.7693ZM29.8289 32.7693H30.3023V38.7645H29.8289V32.7693ZM28.7245 32.7693H29.198V38.7645H28.7245V32.7693ZM27.6202 32.7693H28.2514V38.7645H27.6202V32.7693ZM26.5158 32.7693H27.147V38.7645H26.5158V32.7693ZM25.4114 32.7693H26.0425V38.7645H25.4114V32.7693ZM24.938 32.2959V39.3956H32.0378V32.2959H24.938ZM30.7755 24.7229H31.4067V30.5604H30.7755V24.7229ZM29.8289 24.7229H30.3023V30.5604H29.8289V24.7229ZM28.7245 24.7229H29.198V30.5604H28.7245V24.7229ZM27.6202 24.7229H28.2514V30.5604H27.6202V24.7229ZM26.5158 24.7229H27.147V30.5604H26.5158V24.7229ZM25.4114 24.7229H26.0425V30.5604H25.4114V24.7229ZM24.938 24.0918V31.1915H32.0378V24.0918H24.938ZM38.9797 32.7692H39.6108V38.7645H38.9795L38.9797 32.7692ZM37.8753 32.7692H38.5062V38.7645H37.8753V32.7692ZM36.9286 32.7692H37.402V38.7645H36.9286V32.7692ZM35.8242 32.7692H36.2977V38.7645H35.8242V32.7692ZM34.7198 32.7692H35.3509V38.7645H34.7198V32.7692ZM33.6155 32.7692H34.2466V38.7645H33.6153L33.6155 32.7692ZM33.142 32.2959V39.3956H40.0841V32.2959H33.142ZM38.9795 24.7229H39.6108V30.5604H38.9795V24.7229ZM37.8753 24.7229H38.5062V30.5604H37.8753V24.7229ZM36.9286 24.7229H37.402V30.5604H36.9286V24.7229ZM35.8242 24.7229H36.2977V30.5604H35.8242V24.7229ZM34.7198 24.7229H35.3509V30.5604H34.7198V24.7229ZM33.6155 24.7229H34.2466V30.5604H33.6153L33.6155 24.7229ZM33.142 24.0918V31.1915H40.0841V24.0918H33.142ZM38.9795 16.5189H39.6108V22.3564H38.9795V16.5189ZM37.8753 16.5189H38.5062V22.3564H37.8753V16.5189ZM36.9286 16.5189H37.402V22.3564H36.9286V16.5189ZM35.8242 16.5189H36.2977V22.3564H35.8242V16.5189ZM34.7198 16.5189H35.3509V22.3564H34.7198V16.5189ZM33.6155 16.5189H34.2466V22.3564H33.6153L33.6155 16.5189ZM33.142 15.8878V22.9875H40.0841V15.8878H33.142ZM47.1838 32.7692H47.657V38.7645H47.1836L47.1838 32.7692ZM46.0792 32.7692H46.7105V38.7645H46.0792V32.7692ZM44.9748 32.7692H45.6061V38.7645H44.9748V32.7692ZM44.0283 32.7692H44.5017V38.7645H44.0283V32.7692ZM42.9239 32.7692H43.3973V38.7645H42.9239V32.7692ZM41.8195 32.7692H42.4506V38.7645H41.8194L41.8195 32.7692ZM41.1883 32.2959V39.3956H48.2881V32.2959H41.1883ZM23.3606 50.755C22.8347 50.755 22.3877 50.9654 22.0195 51.3862C21.6514 51.8068 21.4673 52.2801 21.4673 52.806C21.4673 53.332 21.6514 53.779 22.0195 54.147C22.3877 54.5152 22.8347 54.6993 23.3606 54.6993C24.1495 54.6993 24.3334 54.5153 24.7016 54.147C25.0697 53.7787 25.2538 53.332 25.2538 52.806C25.2538 52.3853 25.1749 52.0435 25.0172 51.7806C24.8595 51.5177 24.6228 51.281 24.3072 51.0706C23.8338 50.755 23.6761 50.755 23.3606 50.755ZM23.3606 51.3862C23.571 51.3862 23.7288 51.4388 23.8339 51.5439C23.6235 51.6491 23.5183 51.8069 23.5183 52.0173C23.5183 52.3327 23.7287 52.4904 24.1495 52.4904C24.3598 52.4904 24.5176 52.3852 24.6227 52.1748C24.7279 52.3852 24.7805 52.5956 24.7805 52.806C24.7805 53.7526 24.3072 54.2259 23.3606 54.2259C21.9408 54.2259 21.9406 53.7526 21.9406 52.806C21.9406 51.8594 22.414 51.386 23.3606 51.386M28.5669 64.9542C24.2546 62.8506 21.257 59.9056 19.5741 56.119C17.786 56.645 15.6298 56.9605 13.1055 57.0656H6.32125C11.5803 62.2194 18.2592 64.849 26.358 64.9542H28.5669Z" fill="#2A231B" fill-opacity="0.5"/>
</g>
<defs>
<clipPath id="clip0_28_51">
<rect width="80" height="80" fill="white" transform="translate(0 0.5)"/>
</clipPath>
</defs>
</svg>
