<svg width="57" height="56" viewBox="0 0 57 56" fill="none" xmlns="http://www.w3.org/2000/svg">
<g clip-path="url(#clip0_28_102)">
<path fill-rule="evenodd" clip-rule="evenodd" d="M28.5 56C36.0587 56 43.3078 53.05 48.6525 47.799C53.9973 42.548 57 35.4261 57 28C57 20.5739 53.9973 13.452 48.6525 8.20101C43.3078 2.94999 36.0587 0 28.5 0C20.9413 0 13.6922 2.94999 8.34746 8.20101C3.00267 13.452 0 20.5739 0 28C0 35.4261 3.00267 42.548 8.34746 47.799C13.6922 53.05 20.9413 56 28.5 56ZM41.3087 33.24L29.9372 44.412C29.5555 44.7869 29.0378 44.9976 28.498 44.9976C27.9582 44.9976 27.4405 44.7869 27.0587 44.412L15.6913 33.24C15.4075 32.9603 15.2143 32.6043 15.1362 32.217C15.058 31.8296 15.0983 31.4281 15.252 31.0632C15.4057 30.6983 15.6659 30.3863 15.9999 30.1665C16.3338 29.9466 16.7265 29.8289 17.1285 29.828H24.4286V15C24.4286 13.9391 24.8575 12.9217 25.6211 12.1716C26.3846 11.4214 27.4202 11 28.5 11C29.5798 11 30.6154 11.4214 31.3789 12.1716C32.1425 12.9217 32.5714 13.9391 32.5714 15V29.828H39.8715C40.2735 29.8289 40.6662 29.9466 41.0001 30.1665C41.3341 30.3863 41.5943 30.6983 41.748 31.0632C41.9017 31.4281 41.942 31.8296 41.8638 32.217C41.7857 32.6043 41.5925 32.9603 41.3087 33.24Z" fill="#55463F"/>
</g>
<defs>
<clipPath id="clip0_28_102">
<rect width="57" height="56" fill="white"/>
</clipPath>
</defs>
</svg>
