<svg width="24" height="25" viewBox="0 0 24 25" fill="none" xmlns="http://www.w3.org/2000/svg">
<path d="M12 2.44055C10.6868 2.44055 9.38642 2.69921 8.17317 3.20176C6.95991 3.7043 5.85752 4.4409 4.92893 5.36948C3.05357 7.24485 2 9.78839 2 12.4406C2 16.8606 4.87 20.6106 8.84 21.9406C9.34 22.0206 9.5 21.7106 9.5 21.4406V19.7506C6.73 20.3506 6.14 18.4106 6.14 18.4106C5.68 17.2506 5.03 16.9406 5.03 16.9406C4.12 16.3206 5.1 16.3406 5.1 16.3406C6.1 16.4106 6.63 17.3706 6.63 17.3706C7.5 18.8906 8.97 18.4406 9.54 18.2006C9.63 17.5506 9.89 17.1106 10.17 16.8606C7.95 16.6106 5.62 15.7506 5.62 11.9406C5.62 10.8306 6 9.94055 6.65 9.23055C6.55 8.98055 6.2 7.94055 6.75 6.59055C6.75 6.59055 7.59 6.32055 9.5 7.61055C10.29 7.39055 11.15 7.28055 12 7.28055C12.85 7.28055 13.71 7.39055 14.5 7.61055C16.41 6.32055 17.25 6.59055 17.25 6.59055C17.8 7.94055 17.45 8.98055 17.35 9.23055C18 9.94055 18.38 10.8306 18.38 11.9406C18.38 15.7606 16.04 16.6006 13.81 16.8506C14.17 17.1606 14.5 17.7706 14.5 18.7006V21.4406C14.5 21.7106 14.66 22.0306 15.17 21.9406C19.14 20.6006 22 16.8606 22 12.4406C22 11.1273 21.7413 9.82697 21.2388 8.61372C20.7362 7.40046 19.9997 6.29807 19.0711 5.36948C18.1425 4.4409 17.0401 3.7043 15.8268 3.20176C14.6136 2.69921 13.3132 2.44055 12 2.44055Z" fill="#2A231B"/>
</svg>
