<svg width="21" height="21" viewBox="0 0 21 21" fill="none" xmlns="http://www.w3.org/2000/svg">
<g clip-path="url(#clip0_28_240)">
<path d="M10.4999 0.840332C5.1979 0.840332 0.899902 5.13833 0.899902 10.4403C0.899902 15.7423 5.1979 20.0403 10.4999 20.0403C15.8019 20.0403 20.0999 15.7423 20.0999 10.4403C20.0999 5.13833 15.8019 0.840332 10.4999 0.840332ZM8.1499 14.4193H6.2059V8.16333H8.1499V14.4193ZM7.1659 7.39533C6.5519 7.39533 6.1549 6.96033 6.1549 6.42233C6.1549 5.87333 6.5639 5.45133 7.1909 5.45133C7.8179 5.45133 8.2019 5.87333 8.2139 6.42233C8.2139 6.96033 7.8179 7.39533 7.1659 7.39533ZM15.2499 14.4193H13.3059V10.9523C13.3059 10.1453 13.0239 9.59733 12.3209 9.59733C11.7839 9.59733 11.4649 9.96833 11.3239 10.3253C11.2719 10.4523 11.2589 10.6323 11.2589 10.8113V14.4183H9.3139V10.1583C9.3139 9.37733 9.2889 8.72433 9.2629 8.16233H10.9519L11.0409 9.03133H11.0799C11.3359 8.62333 11.9629 8.02133 13.0119 8.02133C14.2909 8.02133 15.2499 8.87833 15.2499 10.7203V14.4193Z" fill="#2A231B"/>
</g>
<defs>
<clipPath id="clip0_28_240">
<rect width="20" height="20" fill="white" transform="translate(0.5 0.44043)"/>
</clipPath>
</defs>
</svg>
