<svg width="128" height="128" viewBox="0 0 128 128" fill="none" xmlns="http://www.w3.org/2000/svg">
<g clip-path="url(#clip0_36_280)">
<path fill-rule="evenodd" clip-rule="evenodd" d="M85.6535 58.3467C87.1517 59.8467 87.9932 61.88 87.9932 64C87.9932 66.12 87.1517 68.1534 85.6535 69.6534L55.4882 99.8294C53.9874 101.329 51.9522 102.172 49.8303 102.171C48.7797 102.171 47.7393 101.964 46.7687 101.562C45.7981 101.159 44.9163 100.57 44.1735 99.8267C43.4308 99.0836 42.8417 98.2015 42.4398 97.2307C42.038 96.2599 41.8313 95.2195 41.8315 94.1688C41.8318 93.1182 42.039 92.0778 42.4413 91.1072C42.8436 90.1366 43.4331 89.2548 44.1762 88.512L68.6829 64L44.1709 39.488C43.4064 38.7504 42.7966 37.868 42.3769 36.8921C41.9571 35.9163 41.736 34.8666 41.7262 33.8044C41.7165 32.7422 41.9184 31.6887 42.3202 30.7053C42.722 29.7219 43.3156 28.8285 44.0664 28.077C44.8172 27.3255 45.7101 26.731 46.6931 26.3283C47.676 25.9256 48.7294 25.7227 49.7916 25.7314C50.8538 25.7402 51.9037 25.9603 52.8799 26.3791C53.8562 26.7979 54.7392 27.407 55.4775 28.1707L85.6642 58.3467H85.6535Z" fill="white"/>
</g>
<defs>
<clipPath id="clip0_36_280">
<rect width="128" height="128" fill="white" transform="matrix(-1 0 0 -1 128 128)"/>
</clipPath>
</defs>
</svg>
