<svg width="128" height="128" viewBox="0 0 128 128" fill="none" xmlns="http://www.w3.org/2000/svg">
<g clip-path="url(#clip0_36_274)">
<path fill-rule="evenodd" clip-rule="evenodd" d="M42.3465 69.6533C40.8483 68.1533 40.0068 66.12 40.0068 64C40.0068 61.88 40.8483 59.8466 42.3465 58.3466L72.5118 28.1706C74.0126 26.6706 76.0478 25.8281 78.1697 25.8286C79.2203 25.8289 80.2607 26.036 81.2313 26.4383C82.2019 26.8407 83.0837 27.4302 83.8265 28.1733C84.5692 28.9164 85.1583 29.7985 85.5602 30.7693C85.962 31.7401 86.1687 32.7805 86.1685 33.8312C86.1682 34.8818 85.961 35.9222 85.5587 36.8928C85.1564 37.8634 84.5669 38.7452 83.8238 39.488L59.3171 64L83.8291 88.512C84.5936 89.2496 85.2034 90.132 85.6231 91.1079C86.0429 92.0837 86.264 93.1334 86.2738 94.1956C86.2835 95.2578 86.0816 96.3113 85.6798 97.2947C85.278 98.2781 84.6844 99.1715 83.9336 99.923C83.1828 100.675 82.2899 101.269 81.3069 101.672C80.324 102.074 79.2706 102.277 78.2084 102.269C77.1462 102.26 76.0963 102.04 75.1201 101.621C74.1438 101.202 73.2608 100.593 72.5225 99.8293L42.3358 69.6533H42.3465Z" fill="white"/>
</g>
<defs>
<clipPath id="clip0_36_274">
<rect width="128" height="128" fill="white"/>
</clipPath>
</defs>
</svg>
