<svg width="80" height="81" viewBox="0 0 80 81" fill="none" xmlns="http://www.w3.org/2000/svg">
<path d="M71.9001 31.93C70.7201 27.4133 68.5668 23.8633 64.0501 23.8633H58.0335V30.9633C58.0335 36.4466 53.3001 41.07 48.2468 41.07H32.2168C27.8101 41.07 24.3668 44.8366 24.3668 49.2433V64.41C24.3668 68.6 28.1335 71.1833 32.2168 72.58C37.1668 74.0866 42.0035 74.41 48.1335 72.58C52.1135 71.3966 55.9868 69.14 55.9868 64.4067V58.3833H40.1768V56.45H64.0501C68.5668 56.45 70.3968 53.2233 71.9001 48.3833C73.5135 43.1133 73.5135 38.2733 71.9001 31.93ZM49.1001 62.04C50.7168 62.04 52.1135 63.44 52.1135 65.0533C52.1135 66.6666 50.7135 68.0633 49.1035 68.0633C47.4901 68.17 46.0901 66.6633 46.0901 65.0533C45.9835 63.44 47.3801 62.04 49.1035 62.04M31.4701 39.0266H47.3868C51.7935 39.0266 55.2368 35.37 55.2368 30.8533V15.9033C55.2368 11.71 51.5801 8.48331 47.3835 7.72998C42.1168 6.97998 36.3068 6.97998 31.4701 7.72998C24.6935 8.91331 23.6168 11.3866 23.6168 15.9033V21.9266H39.5335V23.86H17.8068C13.2901 23.86 9.20347 26.7666 8.02014 31.9266C6.51347 37.95 6.51347 41.7133 8.02014 47.9533C9.20347 52.6866 11.7868 56.02 16.5168 56.02H21.6801V48.8133C21.5701 43.5433 26.1968 39.0266 31.4668 39.0266M30.5001 17.84C29.7066 17.8238 28.95 17.5016 28.3884 16.9407C27.8269 16.3798 27.5038 15.6235 27.4868 14.83C27.4868 13.2166 28.8868 11.8166 30.4968 11.8166C32.1068 11.8166 33.5101 13.2166 33.5101 14.83C33.5101 16.4433 32.1135 17.84 30.5001 17.84Z" fill="#2A231B" fill-opacity="0.5"/>
</svg>
