<svg width="24" height="24" viewBox="0 0 24 24" fill="none" xmlns="http://www.w3.org/2000/svg">
<path d="M8.75001 11.429C8.74313 11.0729 8.80733 10.719 8.93884 10.388C9.07036 10.057 9.26656 9.75556 9.51596 9.50129C9.76537 9.24702 10.063 9.04504 10.3914 8.90715C10.7198 8.76926 11.0723 8.69824 11.4285 8.69824C11.7847 8.69824 12.1373 8.76926 12.4657 8.90715C12.7941 9.04504 13.0917 9.24702 13.3411 9.50129C13.5905 9.75556 13.7867 10.057 13.9182 10.388C14.0497 10.719 14.1139 11.0729 14.107 11.429C14.0935 12.1304 13.8053 12.7985 13.3045 13.2898C12.8036 13.781 12.1301 14.0562 11.4285 14.0562C10.727 14.0562 10.0534 13.781 9.55256 13.2898C9.05172 12.7985 8.76357 12.1304 8.75001 11.429Z" fill="#55463F"/>
<path d="M10.7901 1.49002C11.3678 1.25082 12.0036 1.18842 12.6168 1.31072C13.2301 1.43301 13.7932 1.7345 14.2351 2.17702L21.8231 9.76502C22.1167 10.0585 22.3496 10.4069 22.5085 10.7904C22.6674 11.1739 22.7491 11.5849 22.7491 12C22.7491 12.4151 22.6674 12.8262 22.5085 13.2097C22.3496 13.5931 22.1167 13.9416 21.8231 14.235L14.2351 21.823C13.9416 22.1166 13.5932 22.3495 13.2097 22.5084C12.8262 22.6673 12.4152 22.7491 12.0001 22.7491C11.585 22.7491 11.1739 22.6673 10.7904 22.5084C10.4069 22.3495 10.0585 22.1166 9.76506 21.823L2.17706 14.235C1.88347 13.9416 1.65057 13.5931 1.49166 13.2097C1.33276 12.8262 1.25098 12.4151 1.25098 12C1.25098 11.5849 1.33276 11.1739 1.49166 10.7904C1.65057 10.4069 1.88347 10.0585 2.17706 9.76502L9.76506 2.17602C10.0591 1.88341 10.4072 1.65076 10.7901 1.49102M11.4291 7.25102C10.7735 7.25101 10.1272 7.40521 9.54224 7.70118C8.95731 7.99714 8.45021 8.42656 8.06193 8.95474C7.67364 9.48291 7.41505 10.095 7.30707 10.7416C7.19908 11.3882 7.24472 12.0511 7.4403 12.6768C7.63587 13.3025 7.97591 13.8734 8.43291 14.3434C8.88992 14.8134 9.45108 15.1692 10.0711 15.3822C10.691 15.5953 11.3524 15.6594 12.0018 15.5696C12.6511 15.4797 13.2702 15.2384 13.8091 14.865L15.4691 16.53C15.5381 16.6017 15.6208 16.659 15.7123 16.6984C15.8037 16.7379 15.9021 16.7587 16.0017 16.7597C16.1013 16.7607 16.2 16.7418 16.2923 16.7043C16.3845 16.6667 16.4683 16.6111 16.5388 16.5408C16.6093 16.4705 16.6651 16.3868 16.703 16.2947C16.7408 16.2026 16.7599 16.1039 16.7592 16.0043C16.7585 15.9047 16.7379 15.8063 16.6988 15.7147C16.6596 15.6231 16.6026 15.5403 16.5311 15.471L14.8681 13.803C15.3008 13.1758 15.5537 12.4421 15.5996 11.6815C15.6454 10.9208 15.4824 10.1621 15.1282 9.48739C14.774 8.81269 14.242 8.2477 13.5898 7.85353C12.9376 7.45935 12.1911 7.251 11.4291 7.25102Z" fill="#55463F"/>
</svg>
