<svg width="48" height="48" viewBox="0 0 48 48" fill="none" xmlns="http://www.w3.org/2000/svg">
<g clip-path="url(#clip0_37_329)">
<path d="M46.0006 21.2505C45.9151 20.4465 45.7891 19.509 45.5311 18.4845C45.2731 17.46 44.8516 16.3515 44.2966 15.1635C43.6951 14.0145 42.9766 12.7725 41.9926 11.625C41.6101 11.1555 41.1886 10.734 40.7581 10.266C41.4376 7.578 39.9451 5.235 39.9451 5.235C37.3516 5.0715 35.7346 6.048 35.1331 6.477C35.0476 6.4305 34.9216 6.3915 34.8361 6.3435C34.4146 6.18 33.9451 6.0075 33.4771 5.835C33.0076 5.7015 32.5396 5.538 32.0701 5.4525C31.5788 5.32299 31.0805 5.22133 30.5776 5.148C30.4921 5.148 30.4051 5.109 30.3196 5.109C29.2186 1.5315 25.9756 0 25.9756 0C22.2721 2.3835 21.5461 5.5785 21.5461 5.5785C21.5461 5.5785 21.5461 5.664 21.5071 5.751C21.2956 5.79 21.1246 5.8755 20.9131 5.9235C20.6551 6.009 20.3581 6.096 20.1001 6.2205C19.8421 6.345 19.5451 6.432 19.2871 6.5565C18.7321 6.8145 18.2251 7.0725 17.6701 7.3695C17.1616 7.659 16.6621 7.971 16.1851 8.307C16.0996 8.268 16.0516 8.2215 16.0516 8.2215C11.0671 6.3075 6.63763 8.604 6.63763 8.604C6.25513 13.932 8.64613 17.253 9.11413 17.8455C8.98063 18.189 8.89513 18.486 8.77063 18.8295C8.39084 20.0376 8.11878 21.2769 7.95763 22.533C7.91863 22.7055 7.91863 22.9155 7.87213 23.088C3.27763 25.3455 1.91113 30.033 1.91113 30.033C5.74663 34.4625 10.2631 34.713 10.2631 34.713C10.8271 35.737 11.4806 36.703 12.2236 37.611C12.5206 37.9935 12.8566 38.337 13.2001 38.721C11.7931 42.7215 13.4116 46.0875 13.4116 46.0875C17.7166 46.26 20.5291 44.2125 21.1231 43.743L22.3966 44.1255C23.7166 44.469 25.0846 44.6805 26.4046 44.727H28.1461C30.1546 47.6175 33.7321 48.0075 33.7321 48.0075C36.2401 45.3195 36.4111 42.7185 36.4111 42.1245V41.8665C36.9271 41.484 37.4341 41.1015 37.9501 40.6785C38.9656 39.78 39.8176 38.718 40.5901 37.608C40.6756 37.5225 40.7146 37.3965 40.8016 37.311C43.6531 37.4835 45.6526 35.5215 45.6526 35.5215C45.1831 32.5455 43.4806 31.092 43.1446 30.8415L43.0591 30.756L43.0201 30.7095C43.0201 30.546 43.0591 30.3735 43.0591 30.1545C43.0981 29.8185 43.0981 29.5215 43.0981 29.178V27.9435C43.0981 27.858 43.0981 27.771 43.0591 27.6855L42.9736 27.177C42.9346 26.8335 42.8491 26.5365 42.8011 26.193C42.5057 24.9333 42.018 23.7267 41.3551 22.6155C40.6851 21.5403 39.8671 20.5647 38.9251 19.7175C38.012 18.911 36.9786 18.2521 35.8621 17.7645C34.7984 17.2686 33.661 16.9494 32.4946 16.8195C31.9396 16.734 31.3456 16.734 30.7921 16.734H29.9401C29.6431 16.7805 29.3461 16.8195 29.0881 16.8675C27.9751 17.0772 26.9071 17.4792 25.9321 18.0555C25.0137 18.6107 24.1948 19.316 23.5096 20.142C22.8463 20.9107 22.3251 21.7915 21.9706 22.743C21.6327 23.6293 21.4324 24.5621 21.3766 25.509V26.532C21.3766 26.6565 21.3766 26.7435 21.4156 26.8755C21.5471 28.1865 22.0335 29.4369 22.8226 30.492C23.3386 31.1715 23.8846 31.6875 24.5251 32.109C25.1297 32.515 25.7901 32.8308 26.4856 33.0465C27.1726 33.2655 27.8056 33.3435 28.3996 33.3045H29.2981C29.3836 33.3045 29.4616 33.2655 29.5096 33.2655C29.5951 33.2655 29.6341 33.219 29.7211 33.219C29.8456 33.18 30.0181 33.1335 30.1426 33.0945C30.4006 33.009 30.6586 32.883 30.9166 32.7975C31.138 32.6852 31.3498 32.5547 31.5496 32.4075C31.5961 32.3685 31.6831 32.322 31.7221 32.283C31.7728 32.2444 31.8153 32.196 31.8471 32.1407C31.879 32.0855 31.8994 32.0244 31.9074 31.9612C31.9154 31.8979 31.9106 31.8337 31.8935 31.7723C31.8764 31.7109 31.8472 31.6535 31.8076 31.6035C31.7243 31.5232 31.6199 31.4681 31.5066 31.4445C31.3933 31.4209 31.2756 31.4297 31.1671 31.47C31.1281 31.5165 31.0816 31.5165 31.0036 31.5555C30.8226 31.6485 30.6376 31.7215 30.4486 31.7745C30.2296 31.8135 30.0196 31.899 29.8081 31.938C29.6836 31.938 29.5966 31.9845 29.4646 31.9845H28.7461H28.5736C28.5271 31.9845 28.4491 31.9845 28.4011 31.938C27.904 31.8558 27.4185 31.7143 26.9551 31.5165C26.4666 31.2954 26.02 30.9914 25.6351 30.618C25.21 30.2403 24.8511 29.7941 24.5731 29.298C24.2865 28.7994 24.0981 28.2505 24.0181 27.681C23.9716 27.384 23.9326 27.087 23.9716 26.79V26.532V26.3205C23.9716 26.148 24.0181 26.0235 24.0571 25.851C24.2813 24.5323 24.9252 23.3212 25.8931 22.398C26.1309 22.1475 26.405 21.9341 26.7061 21.765C27.0031 21.546 27.3001 21.374 27.5971 21.249C28.0426 21.0615 28.2376 20.991 28.5736 20.9055C28.9171 20.82 29.2606 20.742 29.5966 20.742C29.7691 20.742 29.9401 20.6955 30.1126 20.6955H30.4486H30.6211C31.7611 20.79 32.8636 21.1245 33.8626 21.6795C35.2216 22.4445 36.3706 23.5935 37.0501 25.0005C37.3936 25.68 37.6516 26.4465 37.7761 27.258C37.8151 27.4695 37.8151 27.6405 37.8616 27.852V28.962C37.8616 29.1735 37.8226 29.391 37.8226 29.6025C37.7761 29.814 37.7761 30.024 37.7371 30.2355L37.6036 30.876C37.5646 31.0875 37.3531 31.689 37.2211 32.1105C37.0966 32.5395 36.5026 33.6885 35.9866 34.368C34.9553 35.7887 33.5748 36.9191 31.9786 37.65C31.1746 37.9935 30.3616 38.2905 29.5096 38.415C29.0906 38.5016 28.664 38.5463 28.2361 38.5485H27.5956H27.5566C27.3451 38.5485 27.0871 38.5485 26.8696 38.502C25.9469 38.4171 25.034 38.2469 24.1426 37.9935C23.2595 37.7375 22.4038 37.3949 21.5881 36.9705C19.9679 36.0958 18.5369 34.909 17.3776 33.4785C16.8226 32.7525 16.3066 31.986 15.8851 31.182C15.4561 30.369 15.1591 29.5185 14.9011 28.6665C14.6562 27.8064 14.5147 26.9201 14.4796 26.0265V24.7065C14.4796 24.285 14.5186 23.8155 14.6041 23.3475C14.6506 22.878 14.7376 22.449 14.8156 21.981C14.9011 21.5205 15.0346 21.09 15.1591 20.622C15.2836 20.154 15.7141 18.8805 16.0966 18.0675C16.8616 16.4505 17.8471 14.997 18.9946 13.848C19.2845 13.5547 19.5981 13.2858 19.9321 13.044C20.163 12.8145 20.4197 12.6127 20.6971 12.4425C21.0331 12.231 21.3766 12.021 21.7591 11.8485C21.9316 11.763 22.1026 11.676 22.3141 11.5905C22.3996 11.5515 22.4866 11.505 22.6111 11.466C22.6966 11.427 22.7836 11.3805 22.9081 11.3325C23.2906 11.169 23.6731 11.0355 24.0571 10.911C24.1426 10.872 24.2761 10.872 24.3616 10.8255C24.4471 10.779 24.5731 10.7865 24.6586 10.74C24.7441 10.6935 25.0411 10.6545 25.2526 10.5675C25.3381 10.5285 25.4641 10.5285 25.5496 10.482C25.6351 10.482 25.7611 10.443 25.8466 10.443C25.9321 10.443 26.0581 10.3965 26.1436 10.3965L26.4871 10.311C26.5726 10.311 26.6986 10.272 26.7841 10.272C26.9176 10.272 26.9956 10.233 27.1276 10.233C27.2131 10.233 27.3781 10.1865 27.4636 10.1865C27.5491 10.1865 27.5971 10.1865 27.6751 10.1475H27.9721C28.1056 10.1475 28.1911 10.1475 28.3156 10.1085H28.4881H30.0586C30.8236 10.1475 31.5976 10.233 32.3161 10.359C33.7456 10.6095 35.1211 11.07 36.4096 11.7255C37.6051 12.303 38.7226 13.0305 39.7306 13.8975C39.7696 13.9365 39.8551 13.983 39.9031 14.061C39.9421 14.1075 40.0276 14.1465 40.0666 14.2335C40.2001 14.319 40.2856 14.445 40.4101 14.5305C40.5346 14.616 40.6216 14.742 40.7536 14.8275C40.8391 14.961 40.9651 15.0465 41.0506 15.171C42.1874 16.3381 43.1362 17.6745 43.8631 19.1325C43.9021 19.1715 43.9021 19.218 43.9486 19.305C43.9876 19.344 43.9876 19.3905 44.0341 19.4685C44.0731 19.554 44.1196 19.6875 44.1976 19.773C44.2441 19.8585 44.2831 19.9845 44.3311 20.07C44.3701 20.1555 44.4166 20.2815 44.4556 20.367C44.6281 20.7495 44.7526 21.132 44.8846 21.516C45.0961 22.11 45.2206 22.626 45.3541 23.0475C45.376 23.133 45.4252 23.209 45.4943 23.264C45.5633 23.3189 45.6484 23.3498 45.7366 23.352C45.9481 23.352 46.0726 23.1795 46.0726 22.962C46.0336 22.4535 46.0336 21.9 45.9871 21.2595L46.0006 21.2505Z" fill="#55463F"/>
</g>
<defs>
<clipPath id="clip0_37_329">
<rect width="48" height="48" fill="white"/>
</clipPath>
</defs>
</svg>
