<svg width="48" height="48" viewBox="0 0 48 48" fill="none" xmlns="http://www.w3.org/2000/svg">
<path d="M15.2819 20.714C15.2819 22.134 15.9899 22.776 15.9899 23.164C15.9899 23.356 15.9259 23.42 15.7339 23.55L14.8939 24.066C14.8299 24.13 14.6379 24.13 14.5079 24.13C14.5079 24.13 13.9939 24.194 13.2199 22.518C12.3179 23.678 10.8359 24.452 9.35386 24.322C8.38786 24.388 5.61586 23.808 5.74586 20.78C5.68186 18.394 7.80586 16.912 10.1919 17.04C10.6419 17.04 11.5439 17.04 13.0919 17.428V16.462C13.2839 14.85 12.1899 13.562 10.2559 13.756C10.1919 13.756 9.09586 13.756 7.35586 14.4C6.90586 14.658 6.90586 14.658 6.71186 14.658C6.26186 14.658 6.45386 13.368 6.51786 13.112C6.77786 12.724 8.77386 12.016 10.5779 12.016C11.8659 11.952 13.0919 12.274 14.1219 13.112C14.9599 14.012 15.2819 15.172 15.2179 16.398L15.2819 20.714ZM9.80586 22.714C11.8019 22.714 12.7059 21.424 12.8979 20.78C12.9619 20.134 12.9619 19.812 12.9619 19.04C12.3179 18.974 11.4159 18.78 10.4499 18.78C9.54786 18.718 7.74386 19.168 7.80786 20.78C7.93586 21.94 8.64586 22.776 9.80586 22.712M20.5019 24.128C19.9859 24.192 19.7919 23.87 19.6619 23.484L16.5719 13.24C16.5079 13.046 16.5079 12.854 16.5079 12.724C16.5079 12.532 16.5719 12.466 16.7659 12.466H18.1199C18.6339 12.402 18.8279 12.854 18.9559 13.112L21.2119 21.874L23.3379 13.112C23.4039 12.918 23.5319 12.402 24.1779 12.466H25.2719C25.3359 12.466 25.9799 12.466 26.1099 13.112L28.1699 22.004L30.4259 13.112C30.4259 13.046 30.6199 12.402 31.2639 12.466H32.5519C32.6179 12.466 32.9399 12.402 32.8119 12.982C32.8119 13.046 33.0039 12.274 29.5239 23.55C29.4599 23.936 29.2659 24.258 28.6859 24.194H27.5259C26.8179 24.258 26.6899 23.55 26.6899 23.486L24.4319 14.98L22.3699 23.486C22.3699 23.55 22.3059 24.194 21.5319 24.194H20.5659V24.13L20.5019 24.128ZM37.5119 24.514C37.1259 24.514 35.4519 24.514 33.9679 23.806C33.7099 23.74 33.4519 23.354 33.4519 23.096V22.388C33.4519 21.872 33.8399 21.936 33.9679 22.002C34.6119 22.258 34.9339 22.452 35.7719 22.646C38.0279 23.162 39.0579 22.582 39.3159 22.388C40.1559 21.872 40.2179 20.776 39.5759 20.198C38.9299 19.682 38.6719 19.682 36.2879 18.908C36.0939 18.78 33.6479 18.008 33.6479 15.622C33.5819 13.882 35.1919 12.078 37.9639 12.078C38.8019 12.078 40.8639 12.336 41.5079 13.044C41.5719 13.11 41.5719 13.304 41.5719 13.496V14.14C41.5719 14.398 41.5079 14.592 41.3139 14.592C40.7979 14.526 40.0259 13.882 38.2219 13.882C37.7699 13.882 35.7079 13.946 35.8379 15.428C35.8379 16.588 37.5779 17.04 37.7699 17.168C40.0259 17.878 40.8619 18.008 41.6359 19.102C42.7319 20.454 42.1519 22.066 41.8939 22.516C40.6699 24.772 37.6419 24.516 37.5139 24.516M40.0919 31.088C35.7739 34.248 29.3959 35.986 24.0479 35.986C16.7231 36.104 9.62748 33.4321 4.19986 28.512C3.74786 28.124 4.13386 27.61 4.64986 27.996C10.6741 31.3709 17.4627 33.1453 24.3679 33.15C29.5219 33.15 34.6119 32.056 39.3819 30.058C40.1539 29.736 40.7999 30.508 40.0919 31.088ZM41.8939 29.028C41.3779 28.318 38.1559 28.768 36.8039 28.834C36.3519 28.898 36.2879 28.574 36.7399 28.318C39.2519 26.578 43.3759 27.03 43.8259 27.61C44.3419 28.124 43.7619 32.314 41.3139 34.31C40.9279 34.57 40.6059 34.374 40.7979 34.052C41.2499 32.636 42.4099 29.736 41.8939 29.026" fill="#55463F"/>
</svg>
